<svg width="359" height="243" viewBox="0 0 359 243" fill="none" xmlns="http://www.w3.org/2000/svg">
<path d="M48.9589 164.271V171.921H58.4689V173.331H48.9589V182.691H47.4589V162.891H60.9589V164.271H48.9589ZM73.9662 176.481H64.4862L62.0262 182.691H60.4362L68.3562 162.891H70.1262L78.0462 182.691H76.4562L73.9662 176.481ZM73.4262 175.101L69.9762 166.461L69.2562 164.361H69.2262L68.5062 166.401L65.0562 175.101H73.4262ZM87.6218 162.591C91.3418 162.591 93.8318 164.051 95.0918 166.971L93.8018 168.021C93.3018 166.601 92.5518 165.571 91.5518 164.931C90.5718 164.291 89.2718 163.971 87.6518 163.971C86.4918 163.971 85.4818 164.151 84.6218 164.511C83.7618 164.871 83.1018 165.361 82.6418 165.981C82.2018 166.601 81.9818 167.301 81.9818 168.081C81.9818 168.841 82.1718 169.471 82.5518 169.971C82.9318 170.471 83.5718 170.901 84.4718 171.261C85.3918 171.601 86.6518 171.911 88.2518 172.191C90.8318 172.631 92.6618 173.271 93.7418 174.111C94.8218 174.951 95.3618 176.111 95.3618 177.591C95.3618 178.651 95.0518 179.591 94.4318 180.411C93.8118 181.231 92.9318 181.871 91.7918 182.331C90.6718 182.771 89.3818 182.991 87.9218 182.991C85.8418 182.991 84.0818 182.581 82.6418 181.761C81.2218 180.921 80.2518 179.751 79.7318 178.251L81.0518 177.231C81.4518 178.651 82.2518 179.741 83.4518 180.501C84.6718 181.241 86.1718 181.611 87.9518 181.611C89.6718 181.611 91.0718 181.261 92.1518 180.561C93.2518 179.861 93.8018 178.901 93.8018 177.681C93.8018 176.621 93.3518 175.781 92.4518 175.161C91.5718 174.541 90.0318 174.041 87.8318 173.661C85.9718 173.341 84.5018 172.951 83.4218 172.491C82.3418 172.031 81.5618 171.461 81.0818 170.781C80.6218 170.101 80.3918 169.251 80.3918 168.231C80.3918 167.211 80.6818 166.271 81.2618 165.411C81.8618 164.551 82.7018 163.871 83.7818 163.371C84.8818 162.851 86.1618 162.591 87.6218 162.591ZM115.316 162.891V182.691H113.816V173.331H101.576V182.691H100.076V162.891H101.576V171.921H113.816V162.891H115.316ZM123.051 182.691H121.551V162.891H123.051V182.691ZM137.145 162.591C139.005 162.591 140.615 163.011 141.975 163.851C143.355 164.671 144.415 165.851 145.155 167.391C145.895 168.911 146.265 170.711 146.265 172.791C146.265 174.871 145.895 176.681 145.155 178.221C144.415 179.741 143.355 180.921 141.975 181.761C140.615 182.581 139.005 182.991 137.145 182.991C135.285 182.991 133.665 182.581 132.285 181.761C130.925 180.921 129.875 179.741 129.135 178.221C128.395 176.681 128.025 174.871 128.025 172.791C128.025 170.711 128.395 168.911 129.135 167.391C129.875 165.851 130.925 164.671 132.285 163.851C133.665 163.011 135.285 162.591 137.145 162.591ZM137.145 163.971C135.605 163.971 134.265 164.331 133.125 165.051C132.005 165.751 131.135 166.771 130.515 168.111C129.915 169.431 129.615 170.991 129.615 172.791C129.615 174.591 129.915 176.161 130.515 177.501C131.135 178.821 132.005 179.841 133.125 180.561C134.265 181.261 135.605 181.611 137.145 181.611C138.685 181.611 140.025 181.261 141.165 180.561C142.305 179.841 143.175 178.821 143.775 177.501C144.395 176.161 144.705 174.591 144.705 172.791C144.705 170.991 144.395 169.431 143.775 168.111C143.175 166.771 142.305 165.751 141.165 165.051C140.025 164.331 138.685 163.971 137.145 163.971ZM166.468 182.691H164.608L154.108 167.151L152.638 164.511H152.608L152.698 167.001V182.691H151.258V162.891H153.148L163.618 178.401L165.118 181.071L165.058 178.581V162.891H166.468V182.691ZM188.347 162.891C191.507 162.891 193.937 163.731 195.637 165.411C197.357 167.071 198.217 169.481 198.217 172.641C198.217 175.881 197.357 178.371 195.637 180.111C193.937 181.831 191.507 182.691 188.347 182.691H182.107V162.891H188.347ZM188.467 181.311C191.107 181.311 193.127 180.571 194.527 179.091C195.947 177.591 196.657 175.441 196.657 172.641C196.657 169.961 195.947 167.901 194.527 166.461C193.127 165.001 191.107 164.271 188.467 164.271H183.607V181.311H188.467ZM217.24 181.311V182.691H203.23V162.891H216.76V164.271H204.73V171.921H214.24V173.331H204.73V181.311H217.24ZM227.719 162.591C231.439 162.591 233.929 164.051 235.189 166.971L233.899 168.021C233.399 166.601 232.649 165.571 231.649 164.931C230.669 164.291 229.369 163.971 227.749 163.971C226.589 163.971 225.579 164.151 224.719 164.511C223.859 164.871 223.199 165.361 222.739 165.981C222.299 166.601 222.079 167.301 222.079 168.081C222.079 168.841 222.269 169.471 222.649 169.971C223.029 170.471 223.669 170.901 224.569 171.261C225.489 171.601 226.749 171.911 228.349 172.191C230.929 172.631 232.759 173.271 233.839 174.111C234.919 174.951 235.459 176.111 235.459 177.591C235.459 178.651 235.149 179.591 234.529 180.411C233.909 181.231 233.029 181.871 231.889 182.331C230.769 182.771 229.479 182.991 228.019 182.991C225.939 182.991 224.179 182.581 222.739 181.761C221.319 180.921 220.349 179.751 219.829 178.251L221.149 177.231C221.549 178.651 222.349 179.741 223.549 180.501C224.769 181.241 226.269 181.611 228.049 181.611C229.769 181.611 231.169 181.261 232.249 180.561C233.349 179.861 233.899 178.901 233.899 177.681C233.899 176.621 233.449 175.781 232.549 175.161C231.669 174.541 230.129 174.041 227.929 173.661C226.069 173.341 224.599 172.951 223.519 172.491C222.439 172.031 221.659 171.461 221.179 170.781C220.719 170.101 220.489 169.251 220.489 168.231C220.489 167.211 220.779 166.271 221.359 165.411C221.959 164.551 222.799 163.871 223.879 163.371C224.979 162.851 226.259 162.591 227.719 162.591ZM241.674 182.691H240.174V162.891H241.674V182.691ZM263.658 173.001V182.691H262.458L262.398 179.241C261.858 180.441 261.008 181.371 259.848 182.031C258.708 182.671 257.288 182.991 255.588 182.991C253.788 182.991 252.208 182.581 250.848 181.761C249.508 180.921 248.468 179.731 247.728 178.191C247.008 176.651 246.648 174.851 246.648 172.791C246.648 170.731 247.018 168.931 247.758 167.391C248.518 165.851 249.578 164.671 250.938 163.851C252.298 163.011 253.878 162.591 255.678 162.591C257.698 162.591 259.348 162.991 260.628 163.791C261.908 164.591 262.868 165.811 263.508 167.451L262.128 168.171C261.668 166.791 260.888 165.751 259.788 165.051C258.708 164.331 257.338 163.971 255.678 163.971C254.198 163.971 252.898 164.331 251.778 165.051C250.658 165.751 249.788 166.771 249.168 168.111C248.548 169.431 248.238 170.991 248.238 172.791C248.238 175.531 248.888 177.691 250.188 179.271C251.508 180.831 253.328 181.611 255.648 181.611C257.088 181.611 258.308 181.331 259.308 180.771C260.308 180.191 261.048 179.441 261.528 178.521C262.008 177.581 262.248 176.581 262.248 175.521V174.411H255.528V173.001H263.658ZM284.183 182.691H282.323L271.823 167.151L270.353 164.511H270.323L270.413 167.001V182.691H268.973V162.891H270.863L281.333 178.401L282.833 181.071L282.773 178.581V162.891H284.183V182.691ZM310.862 179.451C311.702 180.391 312.402 181.031 312.962 181.371C313.542 181.691 314.172 181.851 314.852 181.851L314.492 182.991C313.752 182.991 313.062 182.811 312.422 182.451C311.782 182.091 311.002 181.421 310.082 180.441C308.542 182.141 306.552 182.991 304.112 182.991C302.952 182.991 301.912 182.791 300.992 182.391C300.092 181.971 299.382 181.401 298.862 180.681C298.362 179.941 298.112 179.101 298.112 178.161C298.112 176.861 298.512 175.731 299.312 174.771C300.112 173.791 301.382 172.821 303.122 171.861C302.182 170.641 301.532 169.691 301.172 169.011C300.832 168.311 300.662 167.591 300.662 166.851C300.662 165.671 301.062 164.681 301.862 163.881C302.662 163.061 303.742 162.651 305.102 162.651C306.362 162.651 307.392 162.981 308.192 163.641C309.012 164.281 309.422 165.221 309.422 166.461C309.422 167.601 309.122 168.611 308.522 169.491C307.922 170.351 306.772 171.261 305.072 172.221C305.912 173.321 306.592 174.201 307.112 174.861C308.312 176.381 309.282 177.591 310.022 178.491C310.562 177.631 310.962 176.641 311.222 175.521C311.502 174.401 311.622 173.191 311.582 171.891L312.812 172.011C312.852 173.391 312.702 174.731 312.362 176.031C312.042 177.311 311.542 178.451 310.862 179.451ZM305.072 163.941C304.152 163.941 303.422 164.211 302.882 164.751C302.342 165.291 302.072 165.981 302.072 166.821C302.072 167.441 302.202 168.021 302.462 168.561C302.742 169.101 303.352 169.991 304.292 171.231C305.792 170.431 306.792 169.671 307.292 168.951C307.812 168.211 308.072 167.391 308.072 166.491C308.072 165.671 307.802 165.041 307.262 164.601C306.742 164.161 306.012 163.941 305.072 163.941ZM304.022 181.761C305.102 181.761 306.082 181.571 306.962 181.191C307.842 180.791 308.602 180.231 309.242 179.511C308.222 178.311 307.182 177.041 306.122 175.701L303.902 172.881C302.302 173.801 301.172 174.641 300.512 175.401C299.852 176.141 299.522 177.031 299.522 178.071C299.522 179.171 299.952 180.061 300.812 180.741C301.692 181.421 302.762 181.761 304.022 181.761ZM65.5865 197.891C67.6465 197.891 69.2765 198.411 70.4765 199.451C71.6965 200.471 72.3065 201.881 72.3065 203.681C72.3065 205.481 71.6965 206.901 70.4765 207.941C69.2765 208.981 67.6465 209.501 65.5865 209.501H60.5165V217.691H59.0165V197.891H65.5865ZM65.4065 208.091C67.1265 208.091 68.4365 207.711 69.3365 206.951C70.2565 206.191 70.7165 205.101 70.7165 203.681C70.7165 202.281 70.2565 201.201 69.3365 200.441C68.4365 199.661 67.1265 199.271 65.4065 199.271H60.5165V208.091H65.4065ZM86.3441 211.481H76.8641L74.4041 217.691H72.8141L80.7341 197.891H82.5041L90.4241 217.691H88.8341L86.3441 211.481ZM85.8041 210.101L82.3541 201.461L81.6341 199.361H81.6041L80.8841 201.401L77.4341 210.101H85.8041ZM104.772 199.271H97.5423V217.691H96.0423V199.271H88.8123V197.891H104.772V199.271ZM122.058 199.271H114.828V217.691H113.328V199.271H106.098V197.891H122.058V199.271ZM139.853 216.311V217.691H125.843V197.891H139.373V199.271H127.343V206.921H136.853V208.331H127.343V216.311H139.853ZM157.322 217.691L151.652 209.111H151.562H145.712V217.691H144.212V197.891H151.562C153.542 197.891 155.112 198.391 156.272 199.391C157.452 200.391 158.042 201.761 158.042 203.501C158.042 204.941 157.622 206.141 156.782 207.101C155.942 208.041 154.792 208.651 153.332 208.931L159.092 217.691H157.322ZM145.712 207.701H151.532C153.132 207.701 154.352 207.341 155.192 206.621C156.052 205.901 156.482 204.861 156.482 203.501C156.482 202.141 156.052 201.101 155.192 200.381C154.352 199.641 153.132 199.271 151.532 199.271H145.712V207.701ZM178.611 217.691H176.751L166.251 202.151L164.781 199.511H164.751L164.841 202.001V217.691H163.401V197.891H165.291L175.761 213.401L177.261 216.071L177.201 213.581V197.891H178.611V217.691ZM212.671 217.691H211.231V202.931L211.411 199.331H211.381L204.151 217.691H202.771L195.541 199.331H195.511L195.691 202.931V217.691H194.251V197.891H196.501L202.471 212.891L203.461 215.921H203.491L204.451 212.921L210.421 197.891H212.671V217.691ZM229.899 211.481H220.419L217.959 217.691H216.369L224.289 197.891H226.059L233.979 217.691H232.389L229.899 211.481ZM229.359 210.101L225.909 201.461L225.189 199.361H225.159L224.439 201.401L220.989 210.101H229.359ZM243.129 207.011L239.169 211.031V217.691H237.669V197.891H239.169V208.991L250.029 197.891H252.009L244.179 205.901L252.219 217.691H250.389L243.129 207.011ZM257.479 217.691H255.979V197.891H257.479V217.691ZM278.924 217.691H277.064L266.564 202.151L265.094 199.511H265.064L265.154 202.001V217.691H263.714V197.891H265.604L276.074 213.401L277.574 216.071L277.514 213.581V197.891H278.924V217.691ZM300.909 208.001V217.691H299.709L299.649 214.241C299.109 215.441 298.259 216.371 297.099 217.031C295.959 217.671 294.539 217.991 292.839 217.991C291.039 217.991 289.459 217.581 288.099 216.761C286.759 215.921 285.719 214.731 284.979 213.191C284.259 211.651 283.899 209.851 283.899 207.791C283.899 205.731 284.269 203.931 285.009 202.391C285.769 200.851 286.829 199.671 288.189 198.851C289.549 198.011 291.129 197.591 292.929 197.591C294.949 197.591 296.599 197.991 297.879 198.791C299.159 199.591 300.119 200.811 300.759 202.451L299.379 203.171C298.919 201.791 298.139 200.751 297.039 200.051C295.959 199.331 294.589 198.971 292.929 198.971C291.449 198.971 290.149 199.331 289.029 200.051C287.909 200.751 287.039 201.771 286.419 203.111C285.799 204.431 285.489 205.991 285.489 207.791C285.489 210.531 286.139 212.691 287.439 214.271C288.759 215.831 290.579 216.611 292.899 216.611C294.339 216.611 295.559 216.331 296.559 215.771C297.559 215.191 298.299 214.441 298.779 213.521C299.259 212.581 299.499 211.581 299.499 210.521V209.411H292.779V208.001H300.909Z" fill="#263654"/>
<rect x="14.5938" width="21.3757" height="112.009" fill="#263654"/>
<rect x="269.396" width="21.3757" height="112.009" fill="#263654"/>
<rect x="177.904" width="21.3757" height="60.7071" fill="#263654"/>
<rect x="50.5039" y="46.1733" width="21.3757" height="65.8373" fill="#263654"/>
<rect x="106.082" width="21.3757" height="65.8373" fill="#263654"/>
<rect x="234.337" y="46.1733" width="21.3757" height="65.8373" fill="#263654"/>
<rect x="324.112" width="21.3757" height="112.009" fill="#263654"/>
<rect x="50.5039" width="76.0976" height="21.3757" fill="#263654"/>
<rect x="50.5039" y="44.4617" width="76.0976" height="21.3757" fill="#263654"/>
<rect x="51.3594" y="90.6323" width="76.0976" height="21.3757" fill="#263654"/>
<rect x="177.904" y="90.6323" width="76.0976" height="21.3757" fill="#263654"/>
<rect x="177.904" y="44.4617" width="77.8077" height="21.3757" fill="#263654"/>
<rect x="269.396" y="90.6323" width="76.0976" height="21.3757" fill="#263654"/>
<rect x="269.396" width="76.0976" height="21.3757" fill="#263654"/>
<rect x="177.904" width="77.8077" height="21.3757" fill="#263654"/>
<rect x="141.993" y="90.6323" width="21.3757" height="21.3757" fill="#263654"/>
<rect x="141.993" y="39.3311" width="21.3757" height="21.3757" fill="#263654"/>
</svg>
