<svg width="391" height="133" viewBox="0 0 391 133" fill="none" xmlns="http://www.w3.org/2000/svg">
<rect width="25.2177" height="132.141" fill="white"/>
<rect x="300.599" width="25.2177" height="132.141" fill="white"/>
<rect x="192.662" width="25.2177" height="71.6182" fill="white"/>
<rect x="42.3652" y="54.4712" width="25.2177" height="77.6704" fill="white"/>
<rect x="107.933" width="25.2177" height="77.6704" fill="white"/>
<rect x="259.236" y="54.4712" width="25.2177" height="77.6704" fill="white"/>
<rect x="365.15" width="25.2177" height="132.141" fill="white"/>
<rect x="42.3652" width="89.7749" height="25.2177" fill="white"/>
<rect x="42.3652" y="52.4536" width="89.7749" height="25.2177" fill="white"/>
<rect x="43.373" y="106.921" width="89.7749" height="25.2177" fill="white"/>
<rect x="192.662" y="106.921" width="89.7749" height="25.2177" fill="white"/>
<rect x="192.662" y="52.4536" width="91.7923" height="25.2177" fill="white"/>
<rect x="300.599" y="106.921" width="89.7749" height="25.2177" fill="white"/>
<rect x="300.599" width="89.7749" height="25.2177" fill="white"/>
<rect x="192.662" width="91.7923" height="25.2177" fill="white"/>
<rect x="150.298" y="106.921" width="25.2177" height="25.2177" fill="white"/>
<rect x="150.298" y="46.3999" width="25.2177" height="25.2177" fill="white"/>
</svg>
