<svg width="79" height="49" viewBox="0 0 79 49" fill="none" xmlns="http://www.w3.org/2000/svg">
<path d="M6.4 4.6C8.76 4.6 10.46 5.53333 11.5 7.4L10.12 8.52C9.72 7.64 9.24 7.02 8.68 6.66C8.13333 6.28667 7.38 6.1 6.42 6.1C5.40667 6.1 4.60667 6.31333 4.02 6.74C3.44667 7.15333 3.16 7.68667 3.16 8.34C3.16 8.76667 3.27333 9.12 3.5 9.4C3.72667 9.68 4.1 9.92667 4.62 10.14C5.15333 10.34 5.88667 10.52 6.82 10.68C8.56667 10.9733 9.8 11.4133 10.52 12C11.2533 12.5867 11.62 13.4 11.62 14.44C11.62 15.1867 11.4067 15.8467 10.98 16.42C10.5667 16.98 9.97333 17.42 9.2 17.74C8.42667 18.0467 7.53333 18.2 6.52 18.2C5.18667 18.2 4.04667 17.94 3.1 17.42C2.16667 16.9 1.45333 16.2067 0.96 15.34L2.34 14.22C2.7 15.0067 3.22667 15.62 3.92 16.06C4.62667 16.4867 5.50667 16.7 6.56 16.7C7.6 16.7 8.42667 16.5133 9.04 16.14C9.65333 15.7533 9.96 15.2133 9.96 14.52C9.96 13.9333 9.69333 13.4667 9.16 13.12C8.62667 12.7733 7.68 12.48 6.32 12.24C4.56 11.9333 3.31333 11.4933 2.58 10.92C1.84667 10.3467 1.48 9.54667 1.48 8.52C1.48 7.81333 1.68 7.16 2.08 6.56C2.48 5.96 3.05333 5.48667 3.8 5.14C4.54667 4.78 5.41333 4.6 6.4 4.6ZM25.6125 14.62C25.1992 15.74 24.5192 16.62 23.5725 17.26C22.6258 17.8867 21.5325 18.2 20.2925 18.2C19.0525 18.2 17.9725 17.9267 17.0525 17.38C16.1325 16.82 15.4192 16.0333 14.9125 15.02C14.4192 13.9933 14.1725 12.7867 14.1725 11.4C14.1725 10.0267 14.4192 8.82667 14.9125 7.8C15.4192 6.77333 16.1325 5.98667 17.0525 5.44C17.9725 4.88 19.0392 4.6 20.2525 4.6C21.5192 4.6 22.5792 4.86 23.4325 5.38C24.2992 5.9 24.9458 6.66667 25.3725 7.68L23.7925 8.42C23.4992 7.64667 23.0725 7.06667 22.5125 6.68C21.9525 6.29333 21.2392 6.1 20.3725 6.1C19.4658 6.1 18.6725 6.31333 17.9925 6.74C17.3125 7.15333 16.7858 7.76 16.4125 8.56C16.0392 9.36 15.8525 10.3067 15.8525 11.4C15.8525 13.0533 16.2458 14.3533 17.0325 15.3C17.8325 16.2333 18.9192 16.7 20.2925 16.7C21.1858 16.7 21.9592 16.4733 22.6125 16.02C23.2658 15.5667 23.7325 14.9 24.0125 14.02L25.6125 14.62ZM33.4434 12.52H30.2834V18H28.6834V4.8H33.6834C35.0301 4.8 36.1101 5.14667 36.9234 5.84C37.7368 6.53333 38.1434 7.47333 38.1434 8.66C38.1434 9.59333 37.8834 10.38 37.3634 11.02C36.8434 11.66 36.1301 12.1 35.2234 12.34L38.9434 18H37.0434L33.4434 12.52ZM30.2834 11.02H33.6634C35.5301 11.02 36.4634 10.2333 36.4634 8.66C36.4634 7.08667 35.5301 6.3 33.6634 6.3H30.2834V11.02ZM47.187 4.6C48.427 4.6 49.507 4.88 50.427 5.44C51.347 5.98667 52.0537 6.77333 52.547 7.8C53.0537 8.81333 53.307 10.0133 53.307 11.4C53.307 12.7867 53.0537 13.9933 52.547 15.02C52.0537 16.0333 51.347 16.82 50.427 17.38C49.507 17.9267 48.427 18.2 47.187 18.2C45.947 18.2 44.867 17.9267 43.947 17.38C43.027 16.82 42.3137 16.0333 41.807 15.02C41.3137 13.9933 41.067 12.7867 41.067 11.4C41.067 10.0133 41.3137 8.81333 41.807 7.8C42.3137 6.77333 43.027 5.98667 43.947 5.44C44.867 4.88 45.947 4.6 47.187 4.6ZM47.187 6.1C45.8137 6.1 44.727 6.57333 43.927 7.52C43.1404 8.45333 42.747 9.74667 42.747 11.4C42.747 13.0533 43.1404 14.3533 43.927 15.3C44.727 16.2333 45.8137 16.7 47.187 16.7C48.5604 16.7 49.6404 16.2333 50.427 15.3C51.227 14.3533 51.627 13.0533 51.627 11.4C51.627 9.74667 51.227 8.45333 50.427 7.52C49.6404 6.57333 48.5604 6.1 47.187 6.1ZM65.988 16.5V18H56.828V4.8H58.428V16.5H65.988ZM77.9411 16.5V18H68.7811V4.8H70.3811V16.5H77.9411Z" fill="#263654"/>
<path d="M38.7348 48.2652C38.8813 48.4116 39.1187 48.4116 39.2652 48.2652L41.6517 45.8787C41.7981 45.7322 41.7981 45.4948 41.6517 45.3483C41.5052 45.2019 41.2678 45.2019 41.1213 45.3483L39 47.4697L36.8787 45.3483C36.7322 45.2019 36.4948 45.2019 36.3484 45.3483C36.2019 45.4948 36.2019 45.7322 36.3484 45.8787L38.7348 48.2652ZM38.625 30L38.625 48L39.375 48L39.375 30L38.625 30Z" fill="#263654"/>
</svg>
